<svg xmlns="http://www.w3.org/2000/svg" viewBox="0 0 538 78">
  <path fill="#15151A" fill-rule="evenodd" d="M 455.0 16.0 L 450.0 25.0 L 450.0 29.0 L 449.0 30.0 L 449.0 41.0 L 450.0 42.0 L 450.0 46.0 L 454.0 54.0 L 462.0 62.0 L 472.0 67.0 L 479.0 68.0 L 480.0 69.0 L 502.0 69.0 L 503.0 68.0 L 507.0 68.0 L 508.0 67.0 L 518.0 77.0 L 525.0 77.0 L 526.0 76.0 L 534.0 74.0 L 522.0 62.0 L 531.0 52.0 L 533.0 48.0 L 534.0 41.0 L 535.0 40.0 L 535.0 31.0 L 534.0 30.0 L 533.0 23.0 L 529.0 16.0 L 523.0 10.0 L 514.0 5.0 L 512.0 5.0 L 508.0 3.0 L 505.0 3.0 L 504.0 2.0 L 480.0 2.0 L 479.0 3.0 L 476.0 3.0 L 466.0 7.0 L 460.0 11.0 Z M 466.0 26.0 L 469.0 22.0 L 474.0 18.0 L 481.0 15.0 L 484.0 15.0 L 485.0 14.0 L 500.0 14.0 L 501.0 15.0 L 504.0 15.0 L 511.0 18.0 L 519.0 27.0 L 519.0 29.0 L 520.0 30.0 L 520.0 41.0 L 517.0 47.0 L 512.0 52.0 L 511.0 52.0 L 503.0 44.0 L 499.0 44.0 L 489.0 48.0 L 497.0 56.0 L 495.0 58.0 L 490.0 58.0 L 489.0 57.0 L 480.0 56.0 L 472.0 52.0 L 467.0 47.0 L 465.0 43.0 L 465.0 41.0 L 464.0 40.0 L 464.0 31.0 Z M 372.0 18.0 L 368.0 27.0 L 368.0 34.0 L 367.0 35.0 L 367.0 37.0 L 368.0 38.0 L 368.0 43.0 L 372.0 53.0 L 375.0 57.0 L 381.0 62.0 L 389.0 66.0 L 396.0 67.0 L 397.0 68.0 L 444.0 68.0 L 437.0 56.0 L 400.0 56.0 L 399.0 55.0 L 397.0 55.0 L 391.0 52.0 L 385.0 46.0 L 382.0 39.0 L 382.0 32.0 L 383.0 31.0 L 383.0 28.0 L 386.0 23.0 L 390.0 19.0 L 399.0 15.0 L 436.0 15.0 L 442.0 6.0 L 443.0 2.0 L 401.0 2.0 L 400.0 3.0 L 396.0 3.0 L 395.0 4.0 L 392.0 4.0 L 391.0 5.0 L 386.0 6.0 L 384.0 8.0 L 381.0 9.0 L 377.0 12.0 Z M 272.0 68.0 L 289.0 68.0 L 290.0 67.0 L 292.0 62.0 L 294.0 60.0 L 296.0 55.0 L 298.0 53.0 L 300.0 48.0 L 302.0 46.0 L 304.0 41.0 L 306.0 39.0 L 307.0 36.0 L 309.0 34.0 L 311.0 29.0 L 313.0 27.0 L 315.0 22.0 L 318.0 18.0 L 320.0 19.0 L 333.0 43.0 L 332.0 44.0 L 311.0 44.0 L 305.0 55.0 L 339.0 55.0 L 341.0 57.0 L 347.0 68.0 L 363.0 68.0 L 363.0 67.0 L 357.0 56.0 L 355.0 54.0 L 353.0 49.0 L 351.0 47.0 L 343.0 31.0 L 341.0 29.0 L 336.0 19.0 L 334.0 17.0 L 326.0 2.0 L 312.0 2.0 L 308.0 7.0 L 300.0 22.0 L 298.0 24.0 L 297.0 27.0 L 289.0 39.0 L 287.0 44.0 L 285.0 46.0 L 284.0 49.0 L 276.0 61.0 L 274.0 66.0 Z M 179.0 2.0 L 179.0 15.0 L 236.0 15.0 L 237.0 16.0 L 239.0 16.0 L 243.0 20.0 L 245.0 25.0 L 243.0 31.0 L 237.0 36.0 L 179.0 36.0 L 179.0 68.0 L 193.0 68.0 L 193.0 50.0 L 194.0 49.0 L 224.0 49.0 L 232.0 57.0 L 232.0 58.0 L 241.0 68.0 L 260.0 68.0 L 242.0 48.0 L 250.0 44.0 L 255.0 39.0 L 257.0 36.0 L 258.0 30.0 L 259.0 29.0 L 259.0 22.0 L 258.0 21.0 L 257.0 15.0 L 250.0 7.0 L 247.0 5.0 L 241.0 4.0 L 240.0 3.0 L 236.0 3.0 L 235.0 2.0 Z M 87.0 3.0 L 87.0 43.0 L 88.0 44.0 L 89.0 51.0 L 93.0 58.0 L 100.0 64.0 L 110.0 68.0 L 114.0 68.0 L 115.0 69.0 L 136.0 69.0 L 137.0 68.0 L 140.0 68.0 L 150.0 64.0 L 158.0 57.0 L 162.0 50.0 L 163.0 43.0 L 164.0 42.0 L 164.0 2.0 L 150.0 2.0 L 149.0 3.0 L 149.0 43.0 L 146.0 49.0 L 143.0 52.0 L 138.0 55.0 L 131.0 56.0 L 130.0 57.0 L 121.0 57.0 L 120.0 56.0 L 115.0 56.0 L 114.0 55.0 L 112.0 55.0 L 104.0 48.0 L 102.0 43.0 L 102.0 2.0 L 88.0 2.0 Z M 2.0 2.0 L 2.0 68.0 L 57.0 68.0 L 67.0 64.0 L 71.0 60.0 L 74.0 53.0 L 74.0 46.0 L 73.0 45.0 L 73.0 42.0 L 72.0 40.0 L 68.0 36.0 L 65.0 35.0 L 64.0 33.0 L 70.0 28.0 L 71.0 23.0 L 72.0 22.0 L 72.0 18.0 L 69.0 10.0 L 66.0 7.0 L 61.0 4.0 L 54.0 3.0 L 53.0 2.0 Z M 16.0 16.0 L 17.0 15.0 L 52.0 15.0 L 54.0 16.0 L 57.0 19.0 L 57.0 24.0 L 53.0 28.0 L 51.0 29.0 L 23.0 29.0 L 23.0 40.0 L 51.0 40.0 L 52.0 41.0 L 54.0 41.0 L 56.0 42.0 L 59.0 46.0 L 59.0 50.0 L 58.0 52.0 L 55.0 55.0 L 53.0 55.0 L 52.0 56.0 L 17.0 56.0 L 16.0 55.0 Z"/>
</svg>
